<svg width="54" height="55" viewBox="0 0 54 55" fill="none" xmlns="http://www.w3.org/2000/svg">
<rect y="0.5" width="54" height="54" rx="4" fill="#F5B54E"/>
<g clip-path="url(#clip0_1_499)">
<path d="M0 0.5H54V54.5H0V0.5Z" fill="#F5B54E"/>
<path d="M0 0.5H54V54.5H0V0.5Z" fill="url(#paint0_linear_1_499)"/>
</g>
<g clip-path="url(#clip1_1_499)">
<path d="M28.2 19.0999C28.2 18.7816 28.0736 18.4764 27.8485 18.2514C27.6235 18.0263 27.3183 17.8999 27 17.8999C26.6817 17.8999 26.3765 18.0263 26.1515 18.2514C25.9264 18.4764 25.8 18.7816 25.8 19.0999V20.2999C25.8 20.6182 25.9264 20.9234 26.1515 21.1484C26.3765 21.3735 26.6817 21.4999 27 21.4999C27.3183 21.4999 27.6235 21.3735 27.8485 21.1484C28.0736 20.9234 28.2 20.6182 28.2 20.2999V19.0999ZM33.7884 22.4083C34.007 22.182 34.1279 21.8789 34.1252 21.5642C34.1225 21.2496 33.9963 20.9486 33.7738 20.7261C33.5513 20.5036 33.2503 20.3774 32.9357 20.3747C32.621 20.372 32.3179 20.4929 32.0916 20.7115L31.2432 21.5599C31.0246 21.7862 30.9037 22.0893 30.9064 22.404C30.9091 22.7186 31.0353 23.0196 31.2578 23.2421C31.4803 23.4646 31.7813 23.5908 32.0959 23.5935C32.4106 23.5962 32.7137 23.4753 32.94 23.2567L33.7884 22.4083ZM36.6 27.4999C36.6 27.8182 36.4736 28.1234 36.2485 28.3484C36.0235 28.5735 35.7183 28.6999 35.4 28.6999H34.2C33.8817 28.6999 33.5765 28.5735 33.3515 28.3484C33.1264 28.1234 33 27.8182 33 27.4999C33 27.1816 33.1264 26.8764 33.3515 26.6514C33.5765 26.4263 33.8817 26.2999 34.2 26.2999H35.4C35.7183 26.2999 36.0235 26.4263 36.2485 26.6514C36.4736 26.8764 36.6 27.1816 36.6 27.4999ZM21.06 23.2567C21.1707 23.3713 21.3031 23.4627 21.4495 23.5256C21.5959 23.5885 21.7534 23.6216 21.9127 23.623C22.0721 23.6244 22.2301 23.594 22.3775 23.5337C22.525 23.4734 22.659 23.3842 22.7717 23.2716C22.8843 23.1589 22.9735 23.0249 23.0338 22.8774C23.0941 22.73 23.1245 22.572 23.1231 22.4126C23.1217 22.2533 23.0886 22.0958 23.0257 21.9494C22.9628 21.803 22.8714 21.6706 22.7568 21.5599L21.9084 20.7115C21.6821 20.4929 21.379 20.372 21.0643 20.3747C20.7497 20.3774 20.4487 20.5036 20.2262 20.7261C20.0037 20.9486 19.8775 21.2496 19.8748 21.5642C19.8721 21.8789 19.993 22.182 20.2116 22.4083L21.06 23.2567ZM21 27.4999C21 27.8182 20.8736 28.1234 20.6485 28.3484C20.4235 28.5735 20.1183 28.6999 19.8 28.6999H18.6C18.2817 28.6999 17.9765 28.5735 17.7515 28.3484C17.5264 28.1234 17.4 27.8182 17.4 27.4999C17.4 27.1816 17.5264 26.8764 17.7515 26.6514C17.9765 26.4263 18.2817 26.2999 18.6 26.2999H19.8C20.1183 26.2999 20.4235 26.4263 20.6485 26.6514C20.8736 26.8764 21 27.1816 21 27.4999ZM24.6 34.6999V33.4999H29.4V34.6999C29.4 35.3364 29.1471 35.9469 28.6971 36.397C28.247 36.847 27.6365 37.0999 27 37.0999C26.3635 37.0999 25.753 36.847 25.3029 36.397C24.8529 35.9469 24.6 35.3364 24.6 34.6999ZM29.4 32.2999C29.418 31.8919 29.6496 31.5247 29.9724 31.2691C30.7556 30.6514 31.3269 29.8051 31.607 28.8477C31.887 27.8903 31.8618 26.8695 31.5349 25.9271C31.208 24.9847 30.5956 24.1676 29.7829 23.5892C28.9702 23.0109 27.9975 22.7002 27 22.7002C26.0025 22.7002 25.0298 23.0109 24.2171 23.5892C23.4044 24.1676 22.792 24.9847 22.4651 25.9271C22.1382 26.8695 22.113 27.8903 22.393 28.8477C22.6731 29.8051 23.2444 30.6514 24.0276 31.2691C24.3516 31.5247 24.582 31.8919 24.5988 32.2999H29.4012H29.4Z" fill="#0D0D0D"/>
</g>
<defs>
<linearGradient id="paint0_linear_1_499" x1="54" y1="-6.25" x2="18" y2="44.375" gradientUnits="userSpaceOnUse">
<stop stop-color="#DD5CE5" stop-opacity="0"/>
<stop offset="1" stop-color="#DD5CE5" stop-opacity="0.15"/>
</linearGradient>
<clipPath id="clip0_1_499">
<rect width="54" height="54" fill="white" transform="translate(0 0.5)"/>
</clipPath>
<clipPath id="clip1_1_499">
<rect width="24" height="24" fill="white" transform="translate(15 15.5)"/>
</clipPath>
</defs>
</svg>
