<svg width="54" height="55" viewBox="0 0 54 55" fill="none" xmlns="http://www.w3.org/2000/svg">
<rect y="0.5" width="54" height="54" rx="4" fill="#664CDE"/>
<g clip-path="url(#clip0_1_327)">
<path d="M0 0.5H54V54.5H0V0.5Z" fill="#664CDE"/>
<path d="M0 0.5H54V54.5H0V0.5Z" fill="url(#paint0_linear_1_327)"/>
</g>
<g clip-path="url(#clip1_1_327)">
<path d="M25.8 21.2649C24.4917 20.6279 23.0552 20.2979 21.6 20.3001C20.094 20.3001 18.6684 20.6481 17.4 21.2649V33.2649C18.7084 32.6279 20.1448 32.2979 21.6 32.3001C23.6028 32.3001 25.4616 32.9121 27 33.9621C28.5913 32.8763 30.4736 32.297 32.4 32.3001C33.906 32.3001 35.3316 32.6481 36.6 33.2649V21.2649C35.2917 20.6279 33.8552 20.2979 32.4 20.3001C30.894 20.3001 29.4684 20.6481 28.2 21.2649V29.9001C28.2 30.2183 28.0736 30.5235 27.8485 30.7486C27.6235 30.9736 27.3183 31.1001 27 31.1001C26.6817 31.1001 26.3765 30.9736 26.1515 30.7486C25.9264 30.5235 25.8 30.2183 25.8 29.9001V21.2649Z" fill="#0D0D0D"/>
</g>
<defs>
<linearGradient id="paint0_linear_1_327" x1="10.125" y1="72.5" x2="54" y2="-7.375" gradientUnits="userSpaceOnUse">
<stop stop-color="#DD5CE5" stop-opacity="0"/>
<stop offset="1" stop-color="#DD5CE5" stop-opacity="0.35"/>
</linearGradient>
<clipPath id="clip0_1_327">
<rect width="54" height="54" fill="white" transform="translate(0 0.5)"/>
</clipPath>
<clipPath id="clip1_1_327">
<rect width="24" height="24" fill="white" transform="translate(15 15.5)"/>
</clipPath>
</defs>
</svg>
