<svg width="54" height="55" viewBox="0 0 54 55" fill="none" xmlns="http://www.w3.org/2000/svg">
<rect y="0.5" width="54" height="54" rx="4" fill="#1CDA8B"/>
<g clip-path="url(#clip0_1_278)">
<path d="M0 0.5H54V54.5H0V0.5Z" fill="#1CDA8B"/>
<path d="M0 0.5H54V54.5H0V0.5Z" fill="url(#paint0_linear_1_278)"/>
</g>
<g clip-path="url(#clip1_1_278)">
<path d="M36.7289 28.2561H33.75V25.9967C33.75 25.8617 33.7458 25.7294 33.7373 25.5997C35.1234 24.2928 35.2491 22.5702 35.25 20.7716C35.25 20.368 34.9387 20.0216 34.5352 20.0023C34.4339 19.9976 34.3328 20.0134 34.2379 20.0488C34.143 20.0842 34.0562 20.1385 33.9828 20.2084C33.9094 20.2783 33.851 20.3623 33.8109 20.4554C33.7709 20.5484 33.7502 20.6487 33.75 20.75C33.75 22.0625 33.6628 23.007 33.2859 23.7425C32.385 21.8136 30.2025 20.7467 27 20.7467C25.1344 20.7467 23.5223 21.1747 22.3392 21.9838C21.6408 22.4614 21.1111 23.0577 20.7595 23.7519C20.3438 23.0305 20.25 22.1094 20.25 20.7716C20.25 20.368 19.9406 20.0216 19.5375 20.0009C19.436 19.9959 19.3345 20.0115 19.2392 20.0468C19.1439 20.0822 19.0567 20.1365 18.9831 20.2066C18.9094 20.2766 18.8508 20.3609 18.8107 20.4543C18.7707 20.5478 18.75 20.6484 18.75 20.75C18.75 22.5139 18.8723 24.2061 20.2706 25.5139C20.2572 25.672 20.2503 25.833 20.25 25.9967V28.2561H17.2711C16.8675 28.2561 16.5211 28.5664 16.5009 28.97C16.496 29.0715 16.5118 29.1729 16.5473 29.2681C16.5828 29.3633 16.6373 29.4503 16.7074 29.5238C16.7776 29.5973 16.8619 29.6558 16.9553 29.6958C17.0488 29.7357 17.1493 29.7562 17.2509 29.7561H20.2509V30.5C20.2502 31.3624 20.4156 32.2168 20.738 33.0167C19.5347 34.0925 18.7584 35.2813 18.75 37.2191C18.75 37.6288 19.0603 37.9831 19.47 37.9995C19.5709 38.0036 19.6717 37.9872 19.7661 37.9513C19.8606 37.9155 19.9468 37.8609 20.0197 37.7909C20.0925 37.7209 20.1505 37.6369 20.19 37.544C20.2296 37.451 20.25 37.351 20.25 37.25C20.25 35.9534 20.6766 35.1542 21.4767 34.3756C22.3994 35.689 23.7589 36.6317 25.3125 37.0353C25.4233 37.0639 25.5392 37.0668 25.6513 37.0437C25.7634 37.0206 25.8688 36.9722 25.9592 36.9021C26.0497 36.832 26.123 36.7421 26.1734 36.6394C26.2238 36.5366 26.25 36.4237 26.25 36.3092V24.5211C26.25 24.1175 26.5603 23.7711 26.9639 23.7509C27.0653 23.7461 27.1667 23.7618 27.2618 23.7972C27.3569 23.8327 27.4439 23.8871 27.5174 23.9571C27.5909 24.0271 27.6494 24.1114 27.6894 24.2047C27.7294 24.298 27.75 24.3985 27.75 24.5V36.3092C27.75 36.4237 27.7762 36.5366 27.8266 36.6394C27.877 36.7421 27.9503 36.832 28.0408 36.9021C28.1312 36.9722 28.2366 37.0206 28.3487 37.0437C28.4608 37.0668 28.5767 37.0639 28.6875 37.0353C30.2408 36.6315 31.6001 35.6889 32.5228 34.3756C33.3197 35.1509 33.7458 35.9469 33.7495 37.2327C33.7478 37.4266 33.8201 37.6139 33.9516 37.7564C34.0831 37.899 34.2639 37.9861 34.4573 38C34.5594 38.0058 34.6615 37.9907 34.7575 37.9556C34.8534 37.9206 34.9412 37.8662 35.0155 37.796C35.0897 37.7258 35.1488 37.6411 35.1891 37.5472C35.2294 37.4533 35.2502 37.3522 35.25 37.25C35.25 35.2963 34.4719 34.0986 33.263 33.0167C33.5853 32.2168 33.7507 31.3624 33.75 30.5V29.7561H36.75C36.8516 29.7562 36.9522 29.7357 37.0456 29.6958C37.139 29.6558 37.2234 29.5973 37.2935 29.5238C37.3636 29.4503 37.4181 29.3633 37.4536 29.2681C37.4891 29.1729 37.5049 29.0715 37.5 28.97C37.4803 28.5664 37.1325 28.2561 36.7289 28.2561Z" fill="#0D0D0D"/>
<path d="M30.0652 20.375L30.0802 20.3792C30.7162 20.5573 31.2553 19.8847 30.9333 19.3081C30.5441 18.6089 29.9752 18.0263 29.2855 17.6205C28.5957 17.2147 27.8101 17.0005 27.0098 17H26.9902C26.1818 17.0005 25.3886 17.2191 24.6941 17.6327C23.9995 18.0462 23.4294 18.6394 23.0437 19.3498C22.7231 19.9395 23.2847 20.6155 23.9269 20.4214C24.8508 20.1402 25.8858 19.9967 27 19.9967C28.1292 19.9967 29.1605 20.1242 30.0652 20.375Z" fill="#0D0D0D"/>
</g>
<defs>
<linearGradient id="paint0_linear_1_278" x1="60.75" y1="27.5" x2="-1.60933e-06" y2="6.125" gradientUnits="userSpaceOnUse">
<stop stop-color="#5555FF" stop-opacity="0"/>
<stop offset="1" stop-color="#5555FF" stop-opacity="0.15"/>
</linearGradient>
<clipPath id="clip0_1_278">
<rect width="54" height="54" fill="white" transform="translate(0 0.5)"/>
</clipPath>
<clipPath id="clip1_1_278">
<rect width="24" height="24" fill="white" transform="translate(15 15.5)"/>
</clipPath>
</defs>
</svg>
