<svg width="54" height="55" viewBox="0 0 54 55" fill="none" xmlns="http://www.w3.org/2000/svg">
<rect y="0.5" width="54" height="54" rx="4" fill="#1CDA8B"/>
<g clip-path="url(#clip0_1_424)">
<path d="M0 0.5H54V54.5H0V0.5Z" fill="#1CDA8B"/>
<path d="M0 0.5H54V54.5H0V0.5Z" fill="url(#paint0_linear_1_424)"/>
</g>
<g clip-path="url(#clip1_1_424)">
<path fill-rule="evenodd" clip-rule="evenodd" d="M29.7792 19.1612C29.9288 19.2109 30.0671 19.2897 30.1862 19.3929C30.3053 19.4961 30.403 19.6218 30.4735 19.7628C30.544 19.9038 30.5861 20.0572 30.5973 20.2145C30.6085 20.3717 30.5886 20.5296 30.5388 20.6792L25.7388 35.0792C25.6382 35.3812 25.4218 35.6309 25.1371 35.7733C24.8524 35.9158 24.5228 35.9393 24.2208 35.8388C23.9188 35.7382 23.6691 35.5218 23.5266 35.2371C23.3842 34.9524 23.3606 34.6228 23.4612 34.3208L28.2612 19.9208C28.311 19.7712 28.3897 19.6329 28.4929 19.5138C28.5962 19.3946 28.7219 19.297 28.8628 19.2265C29.0038 19.1559 29.1573 19.1139 29.3145 19.1026C29.4718 19.0914 29.6297 19.1113 29.7792 19.1612ZM21.8484 23.0516C22.0734 23.2766 22.1997 23.5818 22.1997 23.9C22.1997 24.2182 22.0734 24.5233 21.8484 24.7484L19.0968 27.5L21.8484 30.2516C21.963 30.3623 22.0544 30.4947 22.1173 30.6411C22.1802 30.7875 22.2133 30.9449 22.2147 31.1043C22.2161 31.2636 22.1857 31.4216 22.1254 31.5691C22.065 31.7166 21.9759 31.8506 21.8633 31.9632C21.7506 32.0759 21.6166 32.165 21.4691 32.2253C21.3217 32.2857 21.1637 32.316 21.0043 32.3147C20.845 32.3133 20.6875 32.2802 20.5411 32.2173C20.3947 32.1544 20.2623 32.063 20.1516 31.9484L16.5516 28.3484C16.3266 28.1233 16.2003 27.8182 16.2003 27.5C16.2003 27.1818 16.3266 26.8766 16.5516 26.6516L20.1516 23.0516C20.3766 22.8266 20.6818 22.7002 21 22.7002C21.3182 22.7002 21.6234 22.8266 21.8484 23.0516ZM32.1516 23.0516C32.3766 22.8266 32.6818 22.7002 33 22.7002C33.3182 22.7002 33.6234 22.8266 33.8484 23.0516L37.4484 26.6516C37.6734 26.8766 37.7997 27.1818 37.7997 27.5C37.7997 27.8182 37.6734 28.1233 37.4484 28.3484L33.8484 31.9484C33.7377 32.063 33.6053 32.1544 33.4589 32.2173C33.3125 32.2802 33.155 32.3133 32.9957 32.3147C32.8363 32.316 32.6783 32.2857 32.5309 32.2253C32.3834 32.165 32.2494 32.0759 32.1367 31.9632C32.0241 31.8506 31.935 31.7166 31.8746 31.5691C31.8143 31.4216 31.7839 31.2636 31.7853 31.1043C31.7867 30.9449 31.8198 30.7875 31.8827 30.6411C31.9456 30.4947 32.037 30.3623 32.1516 30.2516L34.9032 27.5L32.1516 24.7484C31.9266 24.5233 31.8003 24.2182 31.8003 23.9C31.8003 23.5818 31.9266 23.2766 32.1516 23.0516Z" fill="#0D0D0D"/>
</g>
<defs>
<linearGradient id="paint0_linear_1_424" x1="60.75" y1="27.5" x2="-1.60933e-06" y2="6.125" gradientUnits="userSpaceOnUse">
<stop stop-color="#5555FF" stop-opacity="0"/>
<stop offset="1" stop-color="#5555FF" stop-opacity="0.15"/>
</linearGradient>
<clipPath id="clip0_1_424">
<rect width="54" height="54" fill="white" transform="translate(0 0.5)"/>
</clipPath>
<clipPath id="clip1_1_424">
<rect width="24" height="24" fill="white" transform="translate(15 15.5)"/>
</clipPath>
</defs>
</svg>
