<svg width="54" height="55" viewBox="0 0 54 55" fill="none" xmlns="http://www.w3.org/2000/svg">
<rect y="0.5" width="54" height="54" rx="4" fill="#F5B54E"/>
<g clip-path="url(#clip0_1_363)">
<path d="M0 0.5H54V54.5H0V0.5Z" fill="#F5B54E"/>
<path d="M0 0.5H54V54.5H0V0.5Z" fill="url(#paint0_linear_1_363)"/>
</g>
<g clip-path="url(#clip1_1_363)">
<path fill-rule="evenodd" clip-rule="evenodd" d="M17.4 21.5C17.4 20.8635 17.6529 20.253 18.1029 19.8029C18.553 19.3528 19.1635 19.1 19.8 19.1H34.2C34.8365 19.1 35.447 19.3528 35.8971 19.8029C36.3471 20.253 36.6 20.8635 36.6 21.5V33.5C36.6 34.1365 36.3471 34.7469 35.8971 35.197C35.447 35.6471 34.8365 35.9 34.2 35.9H19.8C19.1635 35.9 18.553 35.6471 18.1029 35.197C17.6529 34.7469 17.4 34.1365 17.4 33.5V21.5ZM21.3516 23.0516C21.5766 22.8266 21.8818 22.7002 22.2 22.7002C22.5182 22.7002 22.8234 22.8266 23.0484 23.0516L26.6484 26.6516C26.8734 26.8766 26.9997 27.1818 26.9997 27.5C26.9997 27.8182 26.8734 28.1233 26.6484 28.3484L23.0484 31.9484C22.8221 32.167 22.5189 32.2879 22.2043 32.2852C21.8897 32.2825 21.5887 32.1562 21.3662 31.9338C21.1437 31.7113 21.0175 31.4103 21.0148 31.0957C21.0121 30.781 21.133 30.4779 21.3516 30.2516L24.1032 27.5L21.3516 24.7484C21.1266 24.5233 21.0003 24.2182 21.0003 23.9C21.0003 23.5818 21.1266 23.2766 21.3516 23.0516ZM28.2 29.9C27.8817 29.9 27.5765 30.0264 27.3515 30.2514C27.1264 30.4765 27 30.7817 27 31.1C27 31.4182 27.1264 31.7235 27.3515 31.9485C27.5765 32.1735 27.8817 32.3 28.2 32.3H31.8C32.1183 32.3 32.4235 32.1735 32.6485 31.9485C32.8736 31.7235 33 31.4182 33 31.1C33 30.7817 32.8736 30.4765 32.6485 30.2514C32.4235 30.0264 32.1183 29.9 31.8 29.9H28.2Z" fill="#0D0D0D"/>
</g>
<defs>
<linearGradient id="paint0_linear_1_363" x1="54" y1="-6.25" x2="18" y2="44.375" gradientUnits="userSpaceOnUse">
<stop stop-color="#DD5CE5" stop-opacity="0"/>
<stop offset="1" stop-color="#DD5CE5" stop-opacity="0.15"/>
</linearGradient>
<clipPath id="clip0_1_363">
<rect width="54" height="54" fill="white" transform="translate(0 0.5)"/>
</clipPath>
<clipPath id="clip1_1_363">
<rect width="24" height="24" fill="white" transform="translate(15 15.5)"/>
</clipPath>
</defs>
</svg>
