<svg width="54" height="55" viewBox="0 0 54 55" fill="none" xmlns="http://www.w3.org/2000/svg">
<rect y="0.5" width="54" height="54" rx="4" fill="#664CDE"/>
<g clip-path="url(#clip0_1_436)">
<path d="M0 0.5H54V54.5H0V0.5Z" fill="#664CDE"/>
<path d="M0 0.5H54V54.5H0V0.5Z" fill="url(#paint0_linear_1_436)"/>
</g>
<g clip-path="url(#clip1_1_436)">
<path d="M28.2 19.1C28.2 18.7818 28.0736 18.4765 27.8485 18.2515C27.6235 18.0265 27.3183 17.9 27 17.9C26.6817 17.9 26.3765 18.0265 26.1515 18.2515C25.9264 18.4765 25.8 18.7818 25.8 19.1V20.3C25.8 20.6183 25.9264 20.9235 26.1515 21.1486C26.3765 21.3736 26.6817 21.5 27 21.5C27.3183 21.5 27.6235 21.3736 27.8485 21.1486C28.0736 20.9235 28.2 20.6183 28.2 20.3V19.1ZM33.7884 22.4084C34.007 22.1821 34.1279 21.879 34.1252 21.5643C34.1225 21.2497 33.9963 20.9487 33.7738 20.7262C33.5513 20.5038 33.2503 20.3775 32.9357 20.3748C32.621 20.3721 32.3179 20.493 32.0916 20.7116L31.2432 21.56C31.0246 21.7863 30.9037 22.0895 30.9064 22.4041C30.9091 22.7187 31.0353 23.0197 31.2578 23.2422C31.4803 23.4647 31.7813 23.5909 32.0959 23.5936C32.4105 23.5964 32.7137 23.4754 32.94 23.2568L33.7884 22.4084ZM36.6 27.5C36.6 27.8183 36.4736 28.1235 36.2485 28.3486C36.0235 28.5736 35.7183 28.7 35.4 28.7H34.2C33.8817 28.7 33.5765 28.5736 33.3515 28.3486C33.1264 28.1235 33 27.8183 33 27.5C33 27.1818 33.1264 26.8765 33.3515 26.6515C33.5765 26.4265 33.8817 26.3 34.2 26.3H35.4C35.7183 26.3 36.0235 26.4265 36.2485 26.6515C36.4736 26.8765 36.6 27.1818 36.6 27.5ZM21.06 23.2568C21.1707 23.3714 21.3031 23.4629 21.4495 23.5257C21.5959 23.5886 21.7534 23.6217 21.9127 23.6231C22.072 23.6245 22.2301 23.5941 22.3775 23.5338C22.525 23.4735 22.659 23.3844 22.7717 23.2717C22.8843 23.159 22.9734 23.025 23.0338 22.8776C23.0941 22.7301 23.1245 22.5721 23.1231 22.4127C23.1217 22.2534 23.0886 22.0959 23.0257 21.9495C22.9628 21.8031 22.8714 21.6707 22.7568 21.56L21.9084 20.7116C21.6821 20.493 21.3789 20.3721 21.0643 20.3748C20.7497 20.3775 20.4487 20.5038 20.2262 20.7262C20.0037 20.9487 19.8775 21.2497 19.8748 21.5643C19.8721 21.879 19.993 22.1821 20.2116 22.4084L21.06 23.2568ZM21 27.5C21 27.8183 20.8736 28.1235 20.6485 28.3486C20.4235 28.5736 20.1183 28.7 19.8 28.7H18.6C18.2817 28.7 17.9765 28.5736 17.7515 28.3486C17.5264 28.1235 17.4 27.8183 17.4 27.5C17.4 27.1818 17.5264 26.8765 17.7515 26.6515C17.9765 26.4265 18.2817 26.3 18.6 26.3H19.8C20.1183 26.3 20.4235 26.4265 20.6485 26.6515C20.8736 26.8765 21 27.1818 21 27.5ZM24.6 34.7V33.5H29.4V34.7C29.4 35.3365 29.1471 35.947 28.6971 36.3971C28.247 36.8472 27.6365 37.1 27 37.1C26.3635 37.1 25.753 36.8472 25.3029 36.3971C24.8529 35.947 24.6 35.3365 24.6 34.7ZM29.4 32.3C29.418 31.892 29.6496 31.5248 29.9724 31.2692C30.7556 30.6515 31.3269 29.8052 31.607 28.8478C31.887 27.8904 31.8618 26.8696 31.5349 25.9272C31.208 24.9848 30.5956 24.1677 29.7829 23.5894C28.9702 23.011 27.9975 22.7003 27 22.7003C26.0025 22.7003 25.0298 23.011 24.2171 23.5894C23.4044 24.1677 22.792 24.9848 22.4651 25.9272C22.1382 26.8696 22.113 27.8904 22.393 28.8478C22.673 29.8052 23.2444 30.6515 24.0276 31.2692C24.3516 31.5248 24.582 31.892 24.5988 32.3H29.4012H29.4Z" fill="#0D0D0D"/>
</g>
<defs>
<linearGradient id="paint0_linear_1_436" x1="10.125" y1="72.5" x2="54" y2="-7.375" gradientUnits="userSpaceOnUse">
<stop stop-color="#DD5CE5" stop-opacity="0"/>
<stop offset="1" stop-color="#DD5CE5" stop-opacity="0.35"/>
</linearGradient>
<clipPath id="clip0_1_436">
<rect width="54" height="54" fill="white" transform="translate(0 0.5)"/>
</clipPath>
<clipPath id="clip1_1_436">
<rect width="24" height="24" fill="white" transform="translate(15 15.5)"/>
</clipPath>
</defs>
</svg>
